# Blender v3.2.0 OBJ File: 'gizmo.blend'
# www.blender.org
mtllib gizmo.mtl
o Cylinder
v 1.000000 9.096140 0.000000
v 0.980785 9.096140 0.195090
v 0.923880 9.096140 0.382683
v 0.831470 9.096140 0.555570
v 0.707107 9.096140 0.707107
v 0.555570 9.096140 0.831470
v 0.382683 9.096140 0.923880
v 0.195090 9.096140 0.980785
v -0.000000 9.096140 1.000000
v -0.195090 9.096140 0.980785
v -0.382683 9.096140 0.923880
v -0.555570 9.096140 0.831470
v -0.707107 9.096140 0.707107
v -0.831470 9.096140 0.555570
v -0.923880 9.096140 0.382683
v -0.980785 9.096140 0.195090
v -1.000000 9.096140 -0.000000
v -0.980785 0.000000 -0.195090
v -0.980785 9.096140 -0.195090
v -0.923880 0.000000 -0.382683
v -0.923880 9.096140 -0.382683
v -0.831470 9.096140 -0.555570
v -0.707107 0.000000 -0.707107
v -0.707107 9.096140 -0.707107
v -0.555570 0.000000 -0.831469
v -0.555570 9.096140 -0.831469
v -0.382684 9.096140 -0.923880
v -0.195090 9.096140 -0.980785
v 0.000000 9.096140 -1.000000
v 0.195090 9.096140 -0.980785
v 0.382684 9.096140 -0.923879
v 0.555570 9.096140 -0.831470
v 0.707107 9.096140 -0.707107
v 0.831470 9.096140 -0.555570
v 0.923880 9.096140 -0.382683
v 0.980785 9.096140 -0.195090
v 2.545979 9.096138 0.000000
v 2.497058 9.096138 0.496696
v 2.352177 9.096138 0.974304
v 2.116904 9.096138 1.414470
v 1.800279 9.096138 1.800279
v 1.414470 9.096138 2.116904
v 0.974304 9.096138 2.352177
v 0.496696 9.096138 2.497058
v -0.000000 9.096138 2.545979
v -0.496696 9.096138 2.497058
v -0.974304 9.096138 2.352178
v -1.414470 9.096138 2.116904
v -1.800279 9.096138 1.800279
v -2.116904 9.096138 1.414470
v -2.352177 9.096138 0.974304
v -2.497058 9.096138 0.496696
v -2.545979 9.096138 -0.000000
v -2.497058 9.096138 -0.496696
v -2.352177 9.096138 -0.974304
v -2.116904 9.096138 -1.414470
v -1.800279 9.096138 -1.800279
v -1.414470 9.096138 -2.116904
v -0.974304 9.096138 -2.352177
v -0.496696 9.096138 -2.497058
v 0.000000 9.096138 -2.545979
v 0.496696 9.096138 -2.497058
v 0.974304 9.096138 -2.352177
v 1.414470 9.096138 -2.116904
v 1.800279 9.096138 -1.800279
v 2.116904 9.096138 -1.414470
v 2.352178 9.096138 -0.974304
v 2.497058 9.096138 -0.496695
v -0.000000 12.291553 0.000000
v 0.555570 0.000000 0.831470
v 0.382684 0.000000 0.923879
v 0.195090 0.000000 0.980785
v -0.000000 0.000000 1.000000
v -0.195090 0.000000 0.980785
v -0.382684 0.000000 0.923880
v -0.555570 0.000000 0.831470
v -0.707107 0.000000 0.707107
v -0.831470 0.000000 0.555570
v -0.923880 0.000000 0.382683
v -0.980785 0.000000 0.195090
v 0.980785 0.000000 0.195090
v 0.923880 0.000000 0.382683
v 0.831470 0.000000 0.555570
v 0.707107 0.000000 0.707107
v 0.195090 0.000000 -0.980785
v 0.382683 0.000000 -0.923880
v 0.555570 0.000000 -0.831470
v 0.707107 0.000000 -0.707107
v 0.831470 0.000000 -0.555570
v 0.923880 0.000000 -0.382684
v 0.980785 0.000000 -0.195090
v 1.000000 0.000000 0.000000
v -0.999999 0.000000 -0.000000
v -0.831469 0.000000 -0.555570
v -0.382683 0.000000 -0.923879
v -0.195090 0.000000 -0.980784
v 0.000000 0.000000 -0.999999
v 0.000000 0.000000 0.000000
vt 1.000000 1.000000
vt 0.968750 1.000000
vt 0.968750 0.553912
vt 1.000000 0.554968
vt 0.937500 1.000000
vt 0.937500 0.550784
vt 0.906250 1.000000
vt 0.906250 0.545704
vt 0.875000 1.000000
vt 0.843750 1.000000
vt 0.843750 0.545705
vt 0.875000 0.538868
vt 0.812500 1.000000
vt 0.812500 0.550784
vt 0.781250 0.553912
vt 0.781250 1.000000
vt 0.750000 0.554968
vt 0.750000 1.000000
vt 0.718750 1.000000
vt 0.718750 0.553912
vt 0.687500 1.000000
vt 0.687500 0.550784
vt 0.656250 1.000000
vt 0.656250 0.545705
vt 0.625000 1.000000
vt 0.625000 0.538868
vt 0.593750 0.530539
vt 0.593750 1.000000
vt 0.562500 0.521035
vt 0.562500 1.000000
vt 0.531250 0.510724
vt 0.531250 1.000000
vt 0.500000 0.500000
vt 0.500000 1.000000
vt 0.468750 1.000000
vt 0.468750 0.500000
vt 0.437500 1.000000
vt 0.437500 0.500000
vt 0.406250 1.000000
vt 0.406250 0.500000
vt 0.375000 1.000000
vt 0.375000 0.500000
vt 0.343750 1.000000
vt 0.343750 0.500000
vt 0.312500 1.000000
vt 0.312500 0.500000
vt 0.281250 1.000000
vt 0.281250 0.500000
vt 0.250000 1.000000
vt 0.250000 0.500000
vt 0.218750 1.000000
vt 0.218750 0.510724
vt 0.187500 1.000000
vt 0.187500 0.521035
vt 0.156250 1.000000
vt 0.156250 0.530539
vt 0.125000 1.000000
vt 0.125000 0.538868
vt 0.093750 1.000000
vt 0.093750 0.545705
vt 0.062500 1.000000
vt 0.062500 0.550784
vt 0.937500 1.000000
vt 0.906250 1.000000
vt 0.031250 1.000000
vt 0.031250 0.553912
vt 0.000000 1.000000
vt 0.000000 0.554968
vt 0.375000 1.000000
vt 0.406250 1.000000
vt 0.375000 1.000000
vt 0.656250 1.000000
vt 0.625000 1.000000
vt 0.343750 1.000000
vt 0.093750 1.000000
vt 0.062500 1.000000
vt 0.781250 1.000000
vt 0.750000 1.000000
vt 0.500000 1.000000
vt 0.468750 1.000000
vt 0.218750 1.000000
vt 0.187500 1.000000
vt 0.875000 1.000000
vt 0.593750 1.000000
vt 0.312500 1.000000
vt 0.031250 1.000000
vt 0.718750 1.000000
vt 0.437500 1.000000
vt 0.156250 1.000000
vt 0.843750 1.000000
vt 0.562500 1.000000
vt 0.281250 1.000000
vt 1.000000 1.000000
vt 0.968750 1.000000
vt 0.000000 1.000000
vt 0.687500 1.000000
vt 0.125000 1.000000
vt 0.812500 1.000000
vt 0.531250 1.000000
vt 0.250000 1.000000
vt 0.781250 1.000000
vt 0.343750 1.000000
vt 0.750000 1.000000
vt 0.312500 1.000000
vt 0.718750 1.000000
vt 0.281250 1.000000
vt 0.687500 1.000000
vt 0.250000 1.000000
vt 0.656250 1.000000
vt 0.218750 1.000000
vt 0.625000 1.000000
vt 0.187500 1.000000
vt 0.593750 1.000000
vt 0.156250 1.000000
vt 0.562500 1.000000
vt 0.968750 1.000000
vt 0.125000 1.000000
vt 0.531250 1.000000
vt 0.937500 1.000000
vt 0.093750 1.000000
vt 0.500000 1.000000
vt 0.906250 1.000000
vt 0.062500 1.000000
vt 0.468750 1.000000
vt 0.875000 1.000000
vt 0.031250 1.000000
vt 0.437500 1.000000
vt 0.843750 1.000000
vt 0.000000 1.000000
vt 0.406250 1.000000
vt 0.812500 1.000000
vt 0.093750 0.545705
vt 0.250000 0.500000
vt 0.468750 0.500000
vt 0.375000 0.500000
vt 0.500000 0.500000
vt 0.125000 0.538868
vt 1.000000 0.554968
vt 0.406250 0.500000
vt 0.687500 0.550784
vt 0.531250 0.510724
vt 0.156250 0.530539
vt 0.437500 0.500000
vt 0.843750 0.545705
vt 0.031250 0.553912
vt 0.187500 0.521035
vt 0.343750 0.500000
vt 0.062500 0.550784
vt 0.718750 0.553912
vt 0.312500 0.500000
vt 0.968750 0.553912
vt 0.750000 0.554968
vt 0.562500 0.521035
vt 0.281250 0.500000
vt 0.625000 0.538868
vt 0.656250 0.545705
vt 0.781250 0.553912
vt 0.906250 0.545704
vt 0.218750 0.510724
vt 0.875000 0.538868
vt 0.593750 0.530539
vt 0.937500 0.550784
vt 0.812500 0.550784
vn 0.9952 0.0000 0.0980
vn 0.9569 0.0000 0.2903
vn 0.8819 0.0000 0.4714
vn 0.6344 -0.0000 0.7730
vn 0.4714 0.0000 0.8819
vn 0.2903 0.0000 0.9569
vn 0.0980 0.0000 0.9952
vn -0.0980 0.0000 0.9952
vn -0.2903 -0.0000 0.9569
vn -0.4714 0.0000 0.8819
vn -0.6344 0.0000 0.7730
vn -0.7730 0.0000 0.6344
vn -0.8819 0.0000 0.4714
vn -0.9569 0.0000 0.2903
vn -0.9952 -0.0000 0.0980
vn -0.9952 -0.0000 -0.0980
vn -0.9569 0.0000 -0.2903
vn -0.8819 -0.0000 -0.4714
vn -0.7730 -0.0000 -0.6344
vn -0.6344 0.0000 -0.7730
vn -0.4714 -0.0000 -0.8819
vn -0.2903 -0.0000 -0.9569
vn -0.0980 -0.0000 -0.9952
vn 0.0980 -0.0000 -0.9952
vn 0.2903 -0.0000 -0.9569
vn 0.4714 -0.0000 -0.8819
vn 0.6344 0.0000 -0.7730
vn 0.7730 0.0000 -0.6344
vn 0.8819 0.0000 -0.4714
vn -0.0000 -1.0000 0.0000
vn 0.9569 0.0000 -0.2903
vn 0.9952 -0.0000 -0.0980
vn -0.6057 0.6213 -0.4971
vn 0.2275 0.6213 0.7498
vn -0.4971 0.6213 -0.6057
vn 0.0768 0.6213 0.7798
vn -0.3694 0.6213 -0.6910
vn -0.0768 0.6213 0.7798
vn -0.2275 0.6213 -0.7498
vn -0.2275 0.6213 0.7498
vn -0.0768 0.6213 -0.7798
vn -0.3694 0.6213 0.6910
vn 0.0768 0.6213 -0.7798
vn -0.4971 0.6213 0.6057
vn 0.2275 0.6213 -0.7498
vn -0.6057 0.6213 0.4971
vn 0.3694 0.6213 -0.6910
vn -0.6910 0.6213 0.3694
vn 0.7798 0.6213 0.0768
vn 0.4971 0.6213 -0.6057
vn -0.7498 0.6213 0.2275
vn 0.7498 0.6213 0.2275
vn 0.6057 0.6213 -0.4971
vn -0.7798 0.6213 0.0768
vn 0.6910 0.6213 0.3694
vn 0.6910 0.6213 -0.3694
vn -0.7798 0.6213 -0.0768
vn 0.6057 0.6213 0.4971
vn 0.7498 0.6213 -0.2275
vn -0.7498 0.6213 -0.2275
vn 0.4971 0.6213 0.6057
vn 0.7798 0.6213 -0.0768
vn -0.6910 0.6213 -0.3694
vn 0.3694 0.6213 0.6910
vn 0.7730 0.0000 0.6344
usemtl None
s off
f 1/1/1 2/2/1 81/3/1 92/4/1
f 2/2/2 3/5/2 82/6/2 81/3/2
f 3/5/3 4/7/3 83/8/3 82/6/3
f 5/9/4 6/10/4 70/11/4 84/12/4
f 70/11/5 6/10/5 7/13/5 71/14/5
f 72/15/6 71/14/6 7/13/6 8/16/6
f 73/17/7 72/15/7 8/16/7 9/18/7
f 73/17/8 9/18/8 10/19/8 74/20/8
f 74/20/9 10/19/9 11/21/9 75/22/9
f 75/22/10 11/21/10 12/23/10 76/24/10
f 76/24/11 12/23/11 13/25/11 77/26/11
f 78/27/12 77/26/12 13/25/12 14/28/12
f 79/29/13 78/27/13 14/28/13 15/30/13
f 80/31/14 79/29/14 15/30/14 16/32/14
f 93/33/15 80/31/15 16/32/15 17/34/15
f 93/33/16 17/34/16 19/35/16 18/36/16
f 18/36/17 19/35/17 21/37/17 20/38/17
f 20/38/18 21/37/18 22/39/18 94/40/18
f 94/40/19 22/39/19 24/41/19 23/42/19
f 23/42/20 24/41/20 26/43/20 25/44/20
f 25/44/21 26/43/21 27/45/21 95/46/21
f 95/46/22 27/45/22 28/47/22 96/48/22
f 96/48/23 28/47/23 29/49/23 97/50/23
f 97/50/24 29/49/24 30/51/24 85/52/24
f 85/52/25 30/51/25 31/53/25 86/54/25
f 86/54/26 31/53/26 32/55/26 87/56/26
f 32/55/27 33/57/27 88/58/27 87/56/27
f 33/57/28 34/59/28 89/60/28 88/58/28
f 34/59/29 35/61/29 90/62/29 89/60/29
f 4/7/30 3/5/30 39/63/30 40/64/30
f 90/62/31 35/61/31 36/65/31 91/66/31
f 91/66/32 36/65/32 1/67/32 92/68/32
f 57/69/33 56/70/33 69/71/33
f 13/25/30 12/23/30 48/72/30 49/73/30
f 26/43/30 24/41/30 57/69/30 58/74/30
f 35/61/30 34/59/30 66/75/30 67/76/30
f 9/18/30 8/16/30 44/77/30 45/78/30
f 19/35/30 17/34/30 53/79/30 54/80/30
f 31/53/30 30/51/30 62/81/30 63/82/30
f 5/9/30 4/7/30 40/64/30 41/83/30
f 14/28/30 13/25/30 49/73/30 50/84/30
f 27/45/30 26/43/30 58/74/30 59/85/30
f 36/65/30 35/61/30 67/76/30 68/86/30
f 10/19/30 9/18/30 45/78/30 46/87/30
f 21/37/30 19/35/30 54/80/30 55/88/30
f 32/55/30 31/53/30 63/82/30 64/89/30
f 6/10/30 5/9/30 41/83/30 42/90/30
f 15/30/30 14/28/30 50/84/30 51/91/30
f 28/47/30 27/45/30 59/85/30 60/92/30
f 2/2/30 1/1/30 37/93/30 38/94/30
f 1/67/30 36/65/30 68/86/30 37/95/30
f 11/21/30 10/19/30 46/87/30 47/96/30
f 22/39/30 21/37/30 55/88/30 56/70/30
f 33/57/30 32/55/30 64/89/30 65/97/30
f 7/13/30 6/10/30 42/90/30 43/98/30
f 16/32/30 15/30/30 51/91/30 52/99/30
f 29/49/30 28/47/30 60/92/30 61/100/30
f 3/5/30 2/2/30 38/94/30 39/63/30
f 12/23/30 11/21/30 47/96/30 48/72/30
f 24/41/30 22/39/30 56/70/30 57/69/30
f 34/59/30 33/57/30 65/97/30 66/75/30
f 8/16/30 7/13/30 43/98/30 44/77/30
f 17/34/30 16/32/30 52/99/30 53/79/30
f 30/51/30 29/49/30 61/100/30 62/81/30
f 44/77/34 43/98/34 69/101/34
f 58/74/35 57/69/35 69/102/35
f 45/78/36 44/77/36 69/103/36
f 59/85/37 58/74/37 69/104/37
f 46/87/38 45/78/38 69/105/38
f 60/92/39 59/85/39 69/106/39
f 47/96/40 46/87/40 69/107/40
f 61/100/41 60/92/41 69/108/41
f 48/72/42 47/96/42 69/109/42
f 62/81/43 61/100/43 69/110/43
f 49/73/44 48/72/44 69/111/44
f 63/82/45 62/81/45 69/112/45
f 50/84/46 49/73/46 69/113/46
f 64/89/47 63/82/47 69/114/47
f 51/91/48 50/84/48 69/115/48
f 38/94/49 37/93/49 69/116/49
f 65/97/50 64/89/50 69/117/50
f 52/99/51 51/91/51 69/118/51
f 39/63/52 38/94/52 69/119/52
f 66/75/53 65/97/53 69/120/53
f 53/79/54 52/99/54 69/121/54
f 40/64/55 39/63/55 69/122/55
f 67/76/56 66/75/56 69/123/56
f 54/80/57 53/79/57 69/124/57
f 41/83/58 40/64/58 69/125/58
f 68/86/59 67/76/59 69/126/59
f 55/88/60 54/80/60 69/127/60
f 42/90/61 41/83/61 69/128/61
f 37/95/62 68/86/62 69/129/62
f 56/70/63 55/88/63 69/130/63
f 43/98/64 42/90/64 69/131/64
f 5/9/65 84/12/65 83/8/65 4/7/65
f 89/60/30 90/62/30 98/132/30
f 97/50/30 85/52/30 98/133/30
f 18/36/30 20/38/30 98/134/30
f 23/42/30 25/44/30 98/135/30
f 93/33/30 18/36/30 98/136/30
f 88/58/30 89/60/30 98/137/30
f 92/4/30 81/3/30 98/138/30
f 94/40/30 23/42/30 98/139/30
f 75/22/30 76/24/30 98/140/30
f 80/31/30 93/33/30 98/141/30
f 87/56/30 88/58/30 98/142/30
f 20/38/30 94/40/30 98/143/30
f 70/11/30 71/14/30 98/144/30
f 91/66/30 92/68/30 98/145/30
f 86/54/30 87/56/30 98/146/30
f 25/44/30 95/46/30 98/147/30
f 90/62/30 91/66/30 98/148/30
f 74/20/30 75/22/30 98/149/30
f 95/46/30 96/48/30 98/150/30
f 81/3/30 82/6/30 98/151/30
f 73/17/30 74/20/30 98/152/30
f 79/29/30 80/31/30 98/153/30
f 96/48/30 97/50/30 98/154/30
f 77/26/30 78/27/30 98/155/30
f 76/24/30 77/26/30 98/156/30
f 72/15/30 73/17/30 98/157/30
f 83/8/30 84/12/30 98/158/30
f 85/52/30 86/54/30 98/159/30
f 84/12/30 70/11/30 98/160/30
f 78/27/30 79/29/30 98/161/30
f 82/6/30 83/8/30 98/162/30
f 71/14/30 72/15/30 98/163/30
